<svg width="300" height="32" viewBox="0 0 300 32" fill="none" xmlns="http://www.w3.org/2000/svg">
<g clip-path="url(#clip0_699_2121)">
<path d="M103.545 17.8232C103.545 10.1475 109.777 3.95368 117.414 3.95368C124.748 3.95368 130.752 9.65349 131.246 16.8733C131.246 16.5693 131.246 16.2653 131.246 15.9613C131.322 7.22157 124.254 0.153809 115.515 0.153809C106.775 0.153809 99.707 7.22157 99.707 15.9233C99.707 24.625 106.775 31.7308 115.477 31.7308C115.818 31.7308 116.198 31.7308 116.54 31.7308C109.283 31.2748 103.507 25.233 103.545 17.8612V17.8232Z" fill="#EB5E1A"/>
<path d="M124.975 18.0129C122.011 18.0129 119.579 15.581 119.579 12.6171C119.579 10.2992 121.061 8.28524 123.151 7.56327C121.517 6.6893 119.617 6.19531 117.641 6.19531C111.105 6.19531 105.785 11.4771 105.785 18.0129C105.785 24.5487 111.067 29.8685 117.603 29.8685C124.139 29.8685 129.458 24.5867 129.458 18.0509C129.458 17.2909 129.382 16.569 129.268 15.885C128.28 17.1769 126.722 18.0129 124.975 18.0129Z" fill="#EB5E1A"/>
<path d="M139.301 15.9611C139.301 10.2613 143.899 5.62549 149.636 5.62549C153.816 5.62549 157.122 7.94341 158.832 11.3253L154.614 13.4152C153.74 11.5153 151.916 10.0713 149.636 10.0713C146.559 10.0713 144.013 12.6173 144.013 15.9611C144.013 19.305 146.559 21.8889 149.636 21.8889C151.878 21.8889 153.702 20.445 154.614 18.5451L158.832 20.635C157.122 23.9789 153.816 26.3348 149.636 26.3348C143.937 26.3348 139.301 21.737 139.301 15.9991V15.9611Z" fill="#EB5E1A"/>
<path d="M160.469 11.1733H164.915V13.5673C165.713 12.0473 166.967 11.1733 168.486 11.1733H169.74V15.5432H168.296C166.169 15.5432 165.219 16.7212 165.219 18.7731V26.0688H160.507V11.2113L160.469 11.1733Z" fill="#EB5E1A"/>
<path d="M171.258 19.6851V11.1733H175.97V19.6851C175.97 21.319 176.996 22.345 178.592 22.345C180.188 22.345 181.213 21.319 181.213 19.6851V11.1733H185.925V19.6851C185.925 23.6369 182.847 26.3348 178.592 26.3348C174.336 26.3348 171.258 23.6369 171.258 19.6851Z" fill="#EB5E1A"/>
<path d="M188.132 11.1735H192.73V12.9974C193.756 11.8195 195.238 11.0215 196.909 11.0215C200.557 11.0215 202.913 13.6814 202.913 17.4813V26.031H198.201V17.4813C198.201 15.9233 197.023 14.7074 195.504 14.7074C193.984 14.7074 192.806 15.8853 192.806 17.4813V26.031H188.094V11.1735H188.132Z" fill="#EB5E1A"/>
<path d="M215.944 19.9512L219.782 21.7752C218.566 24.4351 215.906 26.335 212.714 26.335C208.383 26.335 204.887 22.8771 204.887 18.5833C204.887 14.2894 208.383 10.8315 212.714 10.8315C215.944 10.8315 218.604 12.7315 219.82 15.4294L215.944 17.2913C215.45 15.9234 214.196 14.9734 212.714 14.9734C210.739 14.9734 209.257 16.5694 209.257 18.6213C209.257 20.6732 210.739 22.2692 212.714 22.2692C214.158 22.2692 215.412 21.3572 215.944 20.0272V19.9512Z" fill="#EB5E1A"/>
<path d="M221.305 5.96777H226.017V12.9595C227.042 11.7816 228.486 11.0216 230.12 11.0216C233.768 11.0216 236.124 13.6815 236.124 17.4814V26.0311H231.412V17.4814C231.412 15.9234 230.234 14.7075 228.714 14.7075C227.194 14.7075 226.017 15.8854 226.017 17.4814V26.0311H221.305V5.96777Z" fill="#EB5E1A"/>
<path d="M244.63 20.027L247.784 11.1733H252.496L246.492 26.9428C245.238 30.2107 243.262 31.6167 239.956 31.6167H237.829V27.5128H239.956C241.248 27.5128 241.894 26.9808 242.236 26.0688L236.309 11.1733H241.324L244.63 20.027Z" fill="#EB5E1A"/>
<path d="M253.676 11.1733H258.122V13.5673C258.92 12.0473 260.174 11.1733 261.694 11.1733H262.947V15.5432H261.504C259.376 15.5432 258.426 16.7212 258.426 18.7731V26.0688H253.714V11.2113L253.676 11.1733Z" fill="#EB5E1A"/>
<path d="M263.602 18.5833C263.602 14.3274 267.097 10.8315 271.467 10.8315C275.837 10.8315 279.333 14.3274 279.333 18.5833C279.333 22.8391 275.837 26.335 271.467 26.335C267.097 26.335 263.602 22.8771 263.602 18.5833ZM267.971 18.5833C267.971 20.6732 269.529 22.2312 271.467 22.2312C273.405 22.2312 274.963 20.6732 274.963 18.5833C274.963 16.4934 273.405 14.9354 271.467 14.9354C269.529 14.9354 267.971 16.4934 267.971 18.5833Z" fill="#EB5E1A"/>
<path d="M286.772 26.0311C282.858 26.0311 281.262 24.3212 281.262 20.6353V5.96777H285.974V20.6353C285.974 21.4713 286.316 21.9272 287.152 21.9272H287.911V26.0311H286.734H286.772Z" fill="#EB5E1A"/>
<path d="M294.639 26.0311C290.725 26.0311 289.129 24.3212 289.129 20.6353V5.96777H293.841V20.6353C293.841 21.4713 294.183 21.9272 295.019 21.9272H295.779V26.0311H294.601H294.639Z" fill="#EB5D19"/>
<path d="M299.731 6.72749C299.579 6.4615 299.351 6.2335 299.085 6.08151C298.819 5.92951 298.515 5.85352 298.173 5.85352C297.831 5.85352 297.565 5.92951 297.261 6.08151C296.995 6.2335 296.767 6.4615 296.615 6.72749C296.463 6.99348 296.387 7.29747 296.387 7.63946C296.387 7.98144 296.463 8.24744 296.615 8.51343C296.767 8.77942 296.995 8.96941 297.261 9.1594C297.527 9.3114 297.831 9.3874 298.173 9.3874C298.515 9.3874 298.781 9.3114 299.085 9.1594C299.351 9.00741 299.579 8.77942 299.731 8.51343C299.883 8.24744 299.959 7.94345 299.959 7.63946C299.959 7.33547 299.883 7.03148 299.731 6.72749ZM299.427 8.32343C299.313 8.55143 299.123 8.70342 298.933 8.81742C298.743 8.93141 298.477 9.00741 298.211 9.00741C297.831 9.00741 297.489 8.85542 297.223 8.58942C296.957 8.32343 296.843 7.98144 296.843 7.60146C296.843 7.33547 296.919 7.10747 297.033 6.87948C297.147 6.65149 297.337 6.49949 297.527 6.3855C297.717 6.2715 297.983 6.1955 298.249 6.1955C298.629 6.1955 298.971 6.3475 299.237 6.61349C299.503 6.87948 299.617 7.22147 299.617 7.63946C299.617 7.90545 299.541 8.13344 299.427 8.36143V8.32343Z" fill="#EB5E1A"/>
<path d="M299.048 7.29752C299.048 7.29752 298.972 6.99353 298.858 6.87953C298.744 6.76554 298.554 6.72754 298.364 6.72754H297.566V8.58948H297.946V7.9055H298.136L298.592 8.58948H299.048L298.592 7.9055C298.592 7.9055 298.82 7.8295 298.896 7.7535C299.01 7.63951 299.086 7.48751 299.086 7.33552L299.048 7.29752ZM298.554 7.48751C298.554 7.48751 298.402 7.56351 298.326 7.56351H297.946V6.99353H298.326C298.326 6.99353 298.516 6.99353 298.554 7.06953C298.63 7.10753 298.668 7.18352 298.668 7.29752C298.668 7.41152 298.668 7.44952 298.554 7.52551V7.48751Z" fill="#EB5E1A"/>
<path d="M2.35592 23.9792H0V13.8716H3.79987C4.78784 13.8716 5.69981 13.8716 6.53578 14.4416C7.40975 15.0495 7.86574 15.9235 7.86574 16.9495C7.86574 17.8994 7.52375 18.8874 6.76377 19.4954C5.8898 20.2174 4.97783 20.2174 3.87587 20.2174H2.35592V23.9412V23.9792ZM3.68588 18.3934C4.25586 18.3934 4.71184 18.3934 5.12983 17.9374C5.35782 17.6715 5.47182 17.3675 5.47182 17.0255C5.47182 16.6455 5.31982 16.2275 4.97783 15.9615C4.59785 15.6955 4.14186 15.6955 3.68588 15.6955H2.35592V18.3934H3.68588Z" fill="white"/>
<path d="M9.76318 22.535C9.04121 21.4711 8.69922 20.1791 8.69922 18.9252C8.69922 16.2272 10.0292 13.7573 13.0311 13.7573C14.361 13.7573 15.425 14.2133 16.223 15.3153C16.9449 16.3032 17.3249 17.7472 17.3249 18.9632C17.3249 20.1031 17.0209 21.5091 16.375 22.459C15.577 23.599 14.399 24.169 13.0311 24.169C11.6631 24.169 10.5612 23.713 9.76318 22.573V22.535ZM11.4731 16.7972C11.2451 17.4052 11.1311 18.2792 11.1311 18.8872C11.1311 20.1411 11.3211 22.155 12.9931 22.155C13.791 22.155 14.247 21.7751 14.513 21.0151C14.741 20.4071 14.817 19.5711 14.817 18.8872C14.817 18.1652 14.741 17.2912 14.437 16.6072C14.133 15.9233 13.7151 15.6193 12.9931 15.6193C12.1951 15.6193 11.7391 16.0372 11.4731 16.7592V16.7972Z" fill="white"/>
<path d="M28.0004 23.9792H25.6825L24.0486 17.2915L22.4526 23.9792H20.1727L17.5508 13.8716H19.9827L21.5406 20.6734L23.1746 13.8716H25.3405L27.0505 20.6734L27.1265 20.2174L28.6084 13.8716H30.5463L28.0004 23.9792Z" fill="white"/>
<path d="M33.7426 15.8095V17.8614H37.5805V19.7614H33.7426V22.0033H38.6065V23.9792H31.3867V13.8716H38.6065V15.8475H33.7426V15.8095Z" fill="white"/>
<path d="M42.3286 23.9792H39.9727V13.8716H44.2285C45.1405 13.8716 46.0525 13.8716 46.8124 14.4036C47.6484 14.9355 48.1044 15.9235 48.1044 16.9115C48.1044 18.0514 47.4584 19.1154 46.3564 19.5334L48.2184 23.9792H45.5965L44.0385 19.9894H42.3286V23.9792ZM42.3286 18.2414H43.6205C44.1145 18.2414 44.6465 18.2794 45.0645 18.0514C45.4445 17.8235 45.6725 17.3295 45.6725 16.9115C45.6725 16.5315 45.4445 16.0755 45.1025 15.8855C44.7225 15.6195 44.0385 15.6955 43.5825 15.6955H42.3286V18.2794V18.2414Z" fill="white"/>
<path d="M51.7544 15.8095V17.8614H55.5922V19.7614H51.7544V22.0033H56.6182V23.9792H49.3984V13.8716H56.6182V15.8475H51.7544V15.8095Z" fill="white"/>
<path d="M60.8389 13.8716C62.2829 13.8716 63.5368 13.9476 64.6388 15.0115C65.7407 16.0375 66.1967 17.4435 66.1967 18.8874C66.1967 20.2554 65.7787 21.5473 64.9048 22.5733C63.9168 23.6753 62.6628 23.9792 61.2189 23.9792H57.875V13.8716H60.8009H60.8389ZM60.2689 22.0793H61.0669C62.0549 22.0793 62.7008 21.8893 63.2328 21.0153C63.6128 20.3694 63.8028 19.5714 63.8028 18.8494C63.8028 18.0514 63.5748 17.2155 63.0808 16.5695C62.5488 15.8475 61.9409 15.7715 61.1049 15.7715H60.3069V22.1173L60.2689 22.0793Z" fill="white"/>
<path d="M76.6078 13.8715C77.4058 13.8715 78.2417 13.8715 78.9257 14.3275C79.7237 14.8595 80.1797 15.5814 80.1797 16.5314C80.1797 17.6714 79.4197 18.4313 78.3557 18.6973C79.6097 18.9633 80.4457 19.9513 80.4457 21.2433C80.4457 22.1172 79.9137 22.9152 79.1917 23.4092C78.4697 23.9412 77.4818 23.9412 76.6078 23.9412H72.0859V13.8335H76.6078V13.8715ZM74.4419 17.8614H76.0378C76.4558 17.8614 76.9498 17.8614 77.2918 17.6334C77.5578 17.4434 77.7098 17.0634 77.7098 16.7214C77.7098 16.3414 77.5198 15.9994 77.2158 15.8094C76.8738 15.6194 76.2658 15.6574 75.8478 15.6574H74.4039V17.8614H74.4419ZM74.4419 22.0792H76.0758C76.4938 22.0792 77.0638 22.0792 77.4058 21.8512C77.7478 21.6232 77.9377 21.2053 77.9377 20.8253C77.9377 20.4453 77.7098 20.0273 77.3678 19.8373C77.0258 19.6473 76.5698 19.6473 76.1898 19.6473H74.4419V22.0792Z" fill="white"/>
<path d="M85.7978 19.6853V23.9412H83.4419V19.6853L80.25 13.8335H82.9859L84.9238 17.6714L86.8238 13.8335H88.9517L85.7978 19.6853Z" fill="white"/>
</g>
<defs>
<clipPath id="clip0_699_2121">
<rect width="300" height="31.5769" fill="white" transform="translate(0 0.153809)"/>
</clipPath>
</defs>
</svg>
